<svg xmlns="http://www.w3.org/2000/svg" width="100" height="101" fill="none" viewBox="0 0 100 101"><path fill="#36A3F1" d="M99.7162 44.7475C96.8162 17.3198 72.1252 -2.65356 44.6771 0.287302C29.7685 1.88027 16.4938 9.96765 8.22263 22.4663C6.95642 24.3861 7.48741 26.9797 9.40714 28.2459C11.3269 29.5121 13.9206 28.9812 15.1868 27.0614C22.0896 16.6254 33.1587 9.88596 45.5757 8.57891C68.4491 6.14861 89.0147 22.7727 91.445 45.6256C93.8753 68.4786 77.2513 89.0647 54.3983 91.4949C39.2855 93.1288 24.4586 86.2667 15.8199 73.9315L23.5192 75.5857C25.7657 76.0554 27.9918 74.6462 28.4819 72.3793C28.9721 70.1328 27.5425 67.9068 25.2756 67.4166L8.63108 63.8427C6.38459 63.3525 4.15851 64.7821 3.66837 67.049L0.0944025 83.6935C-0.395742 85.94 1.07469 88.0231 3.30076 88.6562C5.91486 89.3914 7.8346 87.4104 8.26347 85.4498L9.5501 79.4456C18.965 92.3731 34.0981 100.072 50.0483 100.072C51.7842 100.072 53.5405 99.9908 55.2969 99.7866C82.6837 96.8661 102.637 72.1751 99.7162 44.7475Z"/><path fill="#36A3F1" d="M39.7144 46.7693C40.3271 45.6869 40.6538 44.5432 40.6538 43.3383C40.6538 41.1939 39.9186 39.5192 38.4482 38.2939C36.9777 37.0685 35.2827 36.4354 33.3221 36.4354C31.3819 36.4354 29.789 36.8235 28.5432 37.5995C27.3178 38.3756 26.1741 39.5397 25.153 41.0714L28.3185 42.9094C29.5847 40.9488 31.1777 39.9685 33.0974 39.9685C34.1798 39.9685 35.0784 40.2953 35.7932 40.9488C36.508 41.6024 36.8552 42.3988 36.8552 43.3383C36.8552 44.2777 36.5284 45.1968 35.8545 46.1158C35.1805 47.0348 34.0573 48.2806 32.4848 49.894L25.4389 56.9806V60.3095H41.389V56.5313H30.7897L36.2629 50.9559C37.9376 49.2609 39.0813 47.8721 39.7144 46.7693Z"/><path fill="#36A3F1" d="M52.9482 37.0073L44.3707 50.9764V54.4482H54.3778V60.3095H58.1152V54.4482H60.9131V50.8743H58.1152V46.6059H54.3778V50.8743H48.8024L57.2574 37.0073H52.9482Z"/><path fill="#36A3F1" d="M64.916 35.5981V60.3095H68.6533V50.7109C68.6533 49.0566 69.123 47.8108 70.0829 46.9531C71.0428 46.0953 72.166 45.6665 73.4526 45.6665C76.1688 45.6665 77.5167 47.3003 77.5167 50.5679V60.3095H81.2541V49.4447C81.2541 47.1369 80.6414 45.3601 79.3956 44.1348C78.1703 42.9094 76.5365 42.2967 74.535 42.2967C73.2893 42.2967 72.1252 42.6031 71.0428 43.2362C69.9604 43.8693 69.1639 44.7066 68.6329 45.8094V35.5981H64.916Z"/></svg>