<svg xmlns="http://www.w3.org/2000/svg" width="130" height="85" fill="none" viewBox="0 0 130 85"><path fill="#36A3F1" d="M129.944 64.8802C129.437 62.2947 124.956 39.5236 123.849 36.199C121.188 28.2059 114.795 19.1064 106.748 11.8581C98.3809 4.32216 89.7122 0 82.9638 0H17.3199C13.9179 0 11.15 2.76788 11.15 6.16987V15.8645H6.60476C4.93789 15.8645 3.58649 17.2159 3.58649 18.8828C3.58649 20.5497 4.93789 21.9011 6.60476 21.9011H11.1497V29.1008H3.01827C1.3514 29.1008 0 30.4522 0 32.1191C0 33.786 1.3514 35.1374 3.01827 35.1374H11.1497V65.461C11.1497 68.863 13.9176 71.6306 17.3196 71.6306H24.8448C25.97 79.1075 32.4367 84.8588 40.2222 84.8588C48.0078 84.8588 54.4745 79.1075 55.5994 71.6306H83.2846C84.4094 79.1075 90.8764 84.8588 98.662 84.8588C106.448 84.8588 112.914 79.1075 114.039 71.6306H123.83C127.232 71.6306 130 68.863 130 65.461C130 65.2663 129.981 65.0718 129.944 64.8802ZM117.776 37.1326L86.6745 37.1323V6.57615C97.6927 9.53537 112.965 24.1947 117.776 37.1326ZM40.2225 78.8225C34.976 78.8225 30.7073 74.5541 30.7073 69.3073C30.7073 64.0608 34.976 59.7924 40.2225 59.7924C45.469 59.7924 49.7374 64.0608 49.7374 69.3073C49.7371 74.5541 45.469 78.8225 40.2225 78.8225ZM98.6622 78.8225C93.4157 78.8222 89.1471 74.5539 89.1471 69.3073C89.1471 64.0608 93.4157 59.7924 98.6622 59.7924C103.909 59.7924 108.177 64.0608 108.177 69.3073C108.177 74.5541 103.909 78.8225 98.6622 78.8225ZM123.681 65.5943C121.164 65.5943 113.762 65.5943 113.762 65.5943C112.093 58.8069 105.958 53.7562 98.6622 53.7562C91.3667 53.7562 85.2315 58.8069 83.562 65.5943H55.3225C53.653 58.8069 47.5181 53.7562 40.2225 53.7562C32.927 53.7562 26.7917 58.8069 25.1222 65.5943H17.3199C17.2464 65.5943 17.1866 65.5345 17.1866 65.4613V35.1376H54.1758C55.8427 35.1376 57.1941 33.7862 57.1941 32.1194C57.1941 30.4525 55.8427 29.1011 54.1758 29.1011H17.1863V21.9013H34.212C35.8788 21.9013 37.2302 20.5499 37.2302 18.8831C37.2302 17.2162 35.8788 15.8648 34.212 15.8648H17.1863V6.17013C17.1863 6.09664 17.2461 6.0368 17.3196 6.0368H80.6379V40.1506C80.6379 41.8175 81.9891 43.1689 83.6562 43.1689L119.339 43.1691C120.626 49.038 122.391 58.4447 123.894 65.4083C123.924 65.5484 123.837 65.5943 123.681 65.5943Z"/></svg>