<svg width="119" height="119" viewBox="0 0 119 119" fill="none" xmlns="http://www.w3.org/2000/svg">
<path d="M31.6094 24.1719H57.6406V87.3906H31.6094V24.1719Z" fill="#C7312E"/>
<path d="M65.0781 24.1719H102.266V31.6094H65.0781V24.1719Z" fill="#266FAB"/>
<path d="M83.6719 113.422H61.3594L65.0781 31.6094H83.6719V113.422Z" fill="#3397E8"/>
<path d="M83.6719 113.422H105.984L102.266 31.6094H83.6719V113.422Z" fill="#3397E8"/>
<path d="M105.984 113.422H83.6719V31.6094H102.266L102.689 40.9062L105.984 113.422Z" fill="#3397E8"/>
<path d="M37.1875 33.4688V91.1094H24.1719V94.8281H13.0156V57.6406L17.1853 29.8058C17.5872 28.1966 18.5156 26.768 19.8228 25.7472C21.13 24.7263 22.741 24.1718 24.3996 24.1719H33.4688C33.4642 27.0364 34.5668 29.7919 36.546 31.8627L37.1875 33.4688Z" fill="#EB423F"/>
<path d="M76.2344 57.6406V94.8281H65.0781V91.1094H52.0625V33.4688L52.704 31.8627C54.6832 29.7919 55.7858 27.0364 55.7812 24.1719H64.8503C66.509 24.1718 68.12 24.7263 69.4272 25.7472C70.7344 26.768 71.6628 28.1966 72.0647 29.8058L76.2344 57.6406Z" fill="#EB423F"/>
<path d="M36.546 31.8627C34.5668 29.7919 33.4642 27.0364 33.4688 24.1719H26.0312L27.2213 31.9069C28.0068 37.0062 34.8796 38.0846 37.1875 33.4687V32.4856C36.9644 32.2857 36.7505 32.0789 36.546 31.8627Z" fill="#D13330"/>
<path d="M63.2188 24.1719L62.0288 31.9069C61.2432 37.0062 54.3704 38.0846 52.0625 33.4687V32.4856C52.2856 32.2857 52.4995 32.0789 52.704 31.8627C54.6832 29.7919 55.7858 27.0364 55.7812 24.1719H63.2188Z" fill="#D13330"/>
<path d="M102.689 40.9062H102.266C94.8281 40.9062 94.8281 31.6094 94.8281 31.6094H102.266L102.689 40.9062Z" fill="#2D85CC"/>
<path d="M60.015 114.706C60.1887 114.888 60.3973 115.033 60.6283 115.132C60.8594 115.23 61.1081 115.281 61.3594 115.281H105.984C106.236 115.281 106.484 115.23 106.715 115.132C106.946 115.033 107.155 114.888 107.329 114.706C107.502 114.525 107.637 114.31 107.725 114.075C107.814 113.839 107.853 113.589 107.842 113.337L104.125 31.5649V24.1718C104.125 23.6787 103.929 23.2058 103.58 22.8571C103.232 22.5084 102.759 22.3125 102.266 22.3125H95.3911L87.865 17.2949C88.9232 16.5721 89.7766 15.588 90.3424 14.4382C90.9083 13.2884 91.1674 12.0118 91.0946 10.7324C91.0218 9.45294 90.6196 8.21402 89.927 7.1358C89.2343 6.05758 88.2748 5.17666 87.1415 4.57847C86.0082 3.98029 84.7395 3.68515 83.4585 3.72169C82.1775 3.75822 80.9277 4.12519 79.8303 4.787C78.7329 5.44881 77.8251 6.38299 77.1951 7.49893C76.5651 8.61487 76.2341 9.8747 76.2344 11.1562C76.2344 11.6494 76.4303 12.1223 76.779 12.471C77.1277 12.8197 77.6006 13.0156 78.0938 13.0156C78.5869 13.0156 79.0598 12.8197 79.4085 12.471C79.7572 12.1223 79.9531 11.6494 79.9531 11.1562C79.9531 10.4207 80.1712 9.70173 80.5798 9.09019C80.9885 8.47864 81.5693 8.002 82.2488 7.72054C82.9283 7.43907 83.676 7.36543 84.3974 7.50892C85.1187 7.65241 85.7814 8.00658 86.3014 8.52666C86.8215 9.04674 87.1757 9.70936 87.3192 10.4307C87.4627 11.1521 87.389 11.8998 87.1076 12.5793C86.8261 13.2588 86.3495 13.8396 85.7379 14.2482C85.1264 14.6569 84.4074 14.875 83.6719 14.875C83.3047 14.8749 82.9458 14.9836 82.6404 15.1873L71.9527 22.3125H65.0781C65.0549 22.3125 65.0333 22.315 65.0107 22.316C64.9568 22.316 64.9033 22.3125 64.8494 22.3125H56.3442L48.8179 17.2949C49.8761 16.5721 50.7296 15.588 51.2955 14.4382C51.8613 13.2884 52.1205 12.0119 52.0477 10.7324C51.975 9.45293 51.5728 8.21398 50.8801 7.13574C50.1875 6.05749 49.228 5.17654 48.0947 4.57834C46.9613 3.98014 45.6926 3.68499 44.4116 3.72153C43.1306 3.75806 41.8808 4.12504 40.7834 4.78687C39.686 5.44869 38.7782 6.38289 38.1482 7.49886C37.5182 8.61483 37.1872 9.87468 37.1875 11.1562C37.1875 11.6494 37.3834 12.1223 37.7321 12.471C38.0808 12.8197 38.5537 13.0156 39.0469 13.0156C39.54 13.0156 40.013 12.8197 40.3617 12.471C40.7104 12.1223 40.9063 11.6494 40.9063 11.1562C40.9063 10.4207 41.1244 9.70173 41.533 9.09019C41.9416 8.47864 42.5224 8.002 43.2019 7.72054C43.8814 7.43907 44.6291 7.36543 45.3505 7.50892C46.0719 7.65241 46.7345 8.00658 47.2546 8.52666C47.7746 9.04674 48.1288 9.70936 48.2723 10.4307C48.4158 11.1521 48.3421 11.8998 48.0607 12.5793C47.7792 13.2588 47.3026 13.8396 46.691 14.2482C46.0795 14.6569 45.3605 14.875 44.625 14.875C44.2579 14.8749 43.8989 14.9836 43.5935 15.1873L32.9058 22.3125H24.4006C22.3268 22.3104 20.3121 23.0027 18.6776 24.2791C17.0432 25.5555 15.8832 27.3424 15.3826 29.3548C15.3679 29.4126 15.3561 29.4711 15.3473 29.5303L11.1776 57.3652C11.1637 57.4563 11.1565 57.5484 11.1562 57.6406V94.8281C11.1562 95.3212 11.3521 95.7942 11.7008 96.1429C12.0495 96.4916 12.5225 96.6875 13.0156 96.6875H24.1719C24.665 96.6875 25.138 96.4916 25.4867 96.1429C25.8354 95.7942 26.0313 95.3212 26.0313 94.8281V92.9687H37.1875C37.6806 92.9687 38.1536 92.7728 38.5023 92.4241C38.851 92.0754 39.0469 91.6025 39.0469 91.1093V89.25H50.2031V91.1093C50.2031 91.6025 50.399 92.0754 50.7477 92.4241C51.0964 92.7728 51.5694 92.9687 52.0625 92.9687H60.4276L59.5019 113.337C59.4905 113.588 59.5301 113.839 59.6183 114.075C59.7065 114.31 59.8414 114.525 60.015 114.706ZM81.8125 111.562H63.3052L63.9971 96.3388C64.3119 96.5657 64.6901 96.6877 65.0781 96.6875H76.2344C76.7275 96.6875 77.2005 96.4916 77.5492 96.1429C77.8979 95.7942 78.0938 95.3212 78.0938 94.8281V57.6406C78.0938 57.5483 78.087 57.4562 78.0733 57.3649L74.4935 33.4687H81.8125V111.562ZM104.039 111.562H85.5313V33.4687H93.1249C93.2898 34.6601 93.594 35.8279 94.0314 36.9483C95.3483 40.2401 97.7618 42.2333 100.907 42.6724L104.039 111.562ZM100.733 38.8444C99.2867 38.43 98.2268 37.3741 97.5168 35.6474C97.2343 34.9446 97.025 34.2145 96.892 33.4687H100.489L100.733 38.8444ZM83.6719 18.9691L88.6871 22.3125H78.6567L83.6719 18.9691ZM100.406 26.0312V29.75H73.9367L73.9036 29.5301C73.8948 29.4711 73.883 29.4126 73.8683 29.3546C73.5685 28.1524 73.0311 27.0224 72.2879 26.031L100.406 26.0312ZM57.5084 26.0312H61.0514L60.1915 31.6237C60.0878 32.2932 59.7887 32.9172 59.3317 33.4173C58.8747 33.9173 58.2801 34.2712 57.6226 34.4345C56.9651 34.5978 56.274 34.5632 55.6361 34.3351C54.9982 34.1069 54.442 33.6954 54.0372 33.1522C55.9076 31.198 57.1212 28.7085 57.5084 26.0312ZM44.625 18.9691L49.6402 22.3125H39.6098L44.625 18.9691ZM31.7416 26.0312C32.1289 28.7085 33.3427 31.198 35.2133 33.1522C34.8085 33.6954 34.2522 34.1069 33.6144 34.3351C32.9765 34.5632 32.2854 34.5978 31.6279 34.4345C30.9704 34.2712 30.3758 33.9173 29.9188 33.4173C29.4617 32.9172 29.1626 32.2932 29.059 31.6237L28.1986 26.0312H31.7416ZM35.3281 89.25H26.0313V53.9218C26.0313 53.4287 25.8354 52.9558 25.4867 52.6071C25.138 52.2584 24.665 52.0625 24.1719 52.0625C23.6787 52.0625 23.2058 52.2584 22.8571 52.6071C22.5084 52.9558 22.3125 53.4287 22.3125 53.9218V92.9687H14.875V57.78L19.01 30.176C19.3247 28.9868 20.0242 27.9353 20.9994 27.1855C21.9746 26.4357 23.1705 26.0299 24.4006 26.0312H24.4359L25.3835 32.1904C25.5972 33.6976 26.2937 35.0949 27.3686 36.1728C28.4435 37.2507 29.8388 37.9512 31.3453 38.1692C32.6923 38.3891 34.0741 38.2198 35.3281 37.6811V89.25ZM50.2031 85.5312H39.0469V35.928C40.7895 36.7572 42.6951 37.1875 44.625 37.1875C46.5549 37.1875 48.4605 36.7572 50.2031 35.928V85.5312ZM44.625 33.4687C42.4828 33.4659 40.407 32.7246 38.7476 31.3698C37.0882 30.015 35.9466 28.1295 35.5152 26.0312H53.7359C53.3045 28.1297 52.1627 30.0153 50.5031 31.3702C48.8434 32.725 46.7674 33.4661 44.625 33.4687ZM53.9219 89.25V37.6804C55.1759 38.2189 56.5577 38.3883 57.9047 38.1685C59.4111 37.9505 60.8064 37.2502 61.8812 36.1724C62.9561 35.0946 63.6526 33.6974 63.8665 32.1904L64.8141 26.0312H64.8494C66.0795 26.0299 67.2755 26.4357 68.2506 27.1855C69.2258 27.9353 69.9253 28.9868 70.24 30.176L74.375 57.78V92.9687H66.9375V53.9218C66.9375 53.4287 66.7416 52.9558 66.3929 52.6071C66.0442 52.2584 65.5713 52.0625 65.0781 52.0625C64.585 52.0625 64.112 52.2584 63.7634 52.6071C63.4146 52.9558 63.2188 53.4287 63.2188 53.9218V89.25H53.9219Z" fill="#411051"/>
</svg>
