<svg xmlns="http://www.w3.org/2000/svg" width="132" height="100" fill="none" viewBox="0 0 132 100"><path fill="#5F99D7" d="M106.512 45.7459V5.76131C106.512 3.6455 104.797 1.93005 102.681 1.93005H65.5284C32.8462 1.93005 6.35181 28.4242 6.35181 61.1067H99.9452V50.7386C99.9452 48.9686 101.38 47.5339 103.15 47.5339H104.724C105.711 47.5339 106.512 46.7334 106.512 45.7459Z"/><path fill="#E5EEF9" d="M26.907 41.944C25.8094 41.944 25.065 40.8159 25.5081 39.8117C32.2904 24.4403 47.6766 13.6863 65.5287 13.6863H88.8752C90.0778 13.6863 91.0525 14.6612 91.0525 15.8636V39.7664C91.0525 40.969 90.0775 41.9437 88.8752 41.9437H26.907V41.944Z"/><path fill="#C5D3DD" d="M6.11306 69.4732H101.39C103.701 69.4732 105.574 67.6003 105.574 65.2899C105.574 62.9796 103.701 61.1067 101.39 61.1067H6.11306C3.80273 61.1067 1.92981 62.9796 1.92981 65.2899C1.92981 67.6003 3.80273 69.4732 6.11306 69.4732Z"/><path fill="#596C76" d="M74.3977 41.9439H48.2643V34.349C48.2643 32.7857 49.5316 31.5184 51.0949 31.5184H71.5668C73.1302 31.5184 74.3975 32.7857 74.3975 34.349V41.9439H74.3977Z"/><path fill="#596C76" d="M58.1657 98.0702H50.7662C50.1978 98.0702 49.7369 97.6094 49.7369 97.041V81.2204C49.7369 80.652 50.1978 80.1912 50.7662 80.1912H58.1657C63.1029 80.1912 67.1052 84.1935 67.1052 89.1307C67.1052 94.0678 63.1029 98.0702 58.1657 98.0702Z"/><path fill="#98BCE5" d="M114.924 23.6275H106.512V12.9725H114.924C116.163 12.9725 117.167 13.9768 117.167 15.216V21.3843C117.167 22.623 116.163 23.6275 114.924 23.6275Z"/><path fill="#B6C4CF" d="M101.39 61.1067H91.1791C93.4894 61.1067 95.3623 62.9796 95.3623 65.2899C95.3623 67.6003 93.4894 69.4732 91.1791 69.4732H101.39C103.701 69.4732 105.573 67.6003 105.573 65.2899C105.573 62.9796 103.701 61.1067 101.39 61.1067Z"/><path fill="#3C87D0" d="M102.681 1.93005H92.4694C94.5855 1.93005 96.3007 3.6455 96.3007 5.76131V45.7459V61.1064H99.9454V50.7386C99.9454 48.9686 101.38 47.5339 103.15 47.5339H104.724C105.712 47.5339 106.512 46.7334 106.512 45.7459V5.76131C106.512 3.64524 104.797 1.93005 102.681 1.93005Z"/><path fill="#411051" d="M92.9823 15.8637C92.9823 13.5989 91.1397 11.7563 88.875 11.7563H65.5285C47.4554 11.7563 31.0536 22.4628 23.7425 39.0327C23.2711 40.1007 23.3712 41.3232 24.0099 42.303C24.6511 43.2864 25.734 43.8736 26.9071 43.8736H88.875C91.1397 43.8736 92.9823 42.0313 92.9823 39.7665V15.8637ZM72.468 40.014H50.1944V34.3487C50.1944 33.8518 50.5986 33.4479 51.0952 33.4479H71.5671C72.064 33.4479 72.468 33.8518 72.468 34.3487V40.014ZM89.1227 39.7668C89.1227 39.9031 89.0116 40.0143 88.875 40.0143H76.3273V34.349C76.3273 31.7242 74.1916 29.5886 71.5669 29.5886H51.095C48.47 29.5886 46.3346 31.7242 46.3346 34.349V40.0143H27.5331C34.3499 25.1707 49.1938 15.6162 65.5285 15.6162H88.875C89.0116 15.6162 89.1227 15.7273 89.1227 15.864V39.7668Z"/><path fill="#411051" d="M89.1227 48.544V54.6406C89.1227 55.7066 89.9865 56.5704 91.0525 56.5704C92.1185 56.5704 92.9823 55.7066 92.9823 54.6406V48.544C92.9823 47.478 92.1185 46.6143 91.0525 46.6143C89.9865 46.6143 89.1227 47.478 89.1227 48.544Z"/><path fill="#411051" d="M82.3333 48.544V54.6406C82.3333 55.7066 83.197 56.5704 84.263 56.5704C85.329 56.5704 86.1928 55.7066 86.1928 54.6406V48.544C86.1928 47.478 85.329 46.6143 84.263 46.6143C83.197 46.6143 82.3333 47.478 82.3333 48.544Z"/><path fill="#411051" d="M75.544 48.544V54.6406C75.544 55.7066 76.4078 56.5704 77.4738 56.5704C78.5398 56.5704 79.4036 55.7066 79.4036 54.6406V48.544C79.4036 47.478 78.5398 46.6143 77.4738 46.6143C76.4078 46.6143 75.544 47.478 75.544 48.544Z"/><path fill="#411051" d="M122.403 16.3702H119.097V15.2159C119.097 12.9149 117.225 11.0427 114.923 11.0427H108.442V5.76104C108.442 2.58436 105.857 0 102.681 0H65.5285C61.3725 0 57.2185 0.419921 53.182 1.24844C52.1378 1.46252 51.4652 2.48273 51.6793 3.52661C51.8936 4.5705 52.9128 5.2436 53.9575 5.02901C57.7393 4.25298 61.6323 3.85956 65.5282 3.85956H102.681C103.729 3.85956 104.582 4.71253 104.582 5.76104V45.6041C104.566 45.6041 103.133 45.6041 103.149 45.6041C100.278 45.6041 98.0157 47.9383 98.0157 50.7386V59.1769L8.31453 59.1766C9.09956 36.1332 23.8791 15.4949 45.5889 7.42734C46.588 7.05631 47.097 5.94527 46.7257 4.94616C46.3544 3.94705 45.2436 3.43784 44.2445 3.80939C32.674 8.10894 22.7737 15.73 15.614 25.8483C8.61866 35.7341 4.7766 47.3046 4.44802 59.4092C1.88424 60.1364 0 62.4966 0 65.2899C0 68.6609 2.74235 71.4032 6.11303 71.4032H75.5852C76.6512 71.4032 77.515 70.5394 77.515 69.4734C77.515 68.4074 76.6512 67.5436 75.5852 67.5436H6.11303C4.87051 67.5436 3.85956 66.5327 3.85956 65.2899C3.85956 64.0474 4.87051 63.0364 6.11303 63.0364H6.35181H101.39C102.633 63.0364 103.644 64.0474 103.644 65.2899C103.644 66.5327 102.633 67.5436 101.39 67.5436H84.5906C83.5246 67.5436 82.6608 68.4074 82.6608 69.4734C82.6608 70.5394 83.5246 71.4032 84.5906 71.4032H101.39C104.761 71.4032 107.503 68.6609 107.503 65.2899C107.503 62.0826 105.02 59.4463 101.875 59.198V50.7386C101.875 50.4046 102.023 50.0727 102.155 49.9407C102.655 49.3185 103.299 49.4636 104.724 49.4636C106.774 49.4636 108.441 47.7961 108.441 45.7461V25.5573H114.923C117.224 25.5573 119.096 23.6854 119.096 21.384V20.2298H122.403C125.423 20.2298 127.88 22.687 127.88 25.707V81.7237C127.88 84.7437 125.423 87.2009 122.403 87.2009H68.8603C67.9466 82.1253 63.5006 78.2614 58.1659 78.2614H50.7661C49.1346 78.2614 47.8071 79.5888 47.8071 81.2204V82.8568H40.7974C39.7316 82.8568 38.8676 83.7206 38.8676 84.7866C38.8676 85.8526 39.7316 86.7164 40.7974 86.7164H47.8071V91.545H40.7974C39.7316 91.545 38.8676 92.4088 38.8676 93.4748C38.8676 94.5408 39.7316 95.4045 40.7974 95.4045H47.8071V97.041C47.8071 98.6726 49.1346 100 50.7661 100H58.1657C63.5004 100 67.9463 96.1358 68.86 91.0605H122.403C127.551 91.0605 131.74 86.8721 131.74 81.7237V25.707C131.74 20.5586 127.551 16.3702 122.403 16.3702ZM115.237 21.384C115.237 21.5569 115.096 21.6977 114.923 21.6977H108.442V14.9023H114.923C115.096 14.9023 115.237 15.043 115.237 15.2159V21.384ZM58.1657 96.1404H51.6667V82.121H58.1657C62.0309 82.121 65.1757 85.2657 65.1757 89.1307C65.1757 92.9957 62.0309 96.1404 58.1657 96.1404Z"/></svg>