<svg width="100" height="103" viewBox="0 0 100 103" fill="none" xmlns="http://www.w3.org/2000/svg">
<path d="M0 12.9275V6.78931C0 5.39849 1.15104 4.35376 2.54186 4.35376H22.1032V2.51808C22.1032 1.12726 23.2304 0 24.6212 0C26.0121 0 27.1393 1.12726 27.1393 2.51808V4.35376H66.3095V2.51808C66.3095 1.12726 67.4367 0 68.8276 0C70.2184 0 71.3456 1.12726 71.3456 2.51808V4.35376H91.0063C92.3971 4.35376 93.4488 5.39849 93.4488 6.78931V12.9275C93.4488 14.3184 92.3215 15.4456 90.9307 15.4456C89.5399 15.4456 88.4126 14.3184 88.4126 12.9275V9.38992H71.3456V11.0594C71.3456 12.4502 70.2184 13.5775 68.8276 13.5775C67.4367 13.5775 66.3095 12.4502 66.3095 11.0594V9.38992H27.1393V11.0594C27.1393 12.4502 26.0121 13.5775 24.6212 13.5775C23.2304 13.5775 22.1032 12.4502 22.1032 11.0594V9.38992H5.03616V12.9275C5.03616 14.3184 3.9089 15.4456 2.51808 15.4456C1.12726 15.4456 0 14.3184 0 12.9275ZM100 79.5291C100 92.0605 89.8048 102.255 77.2735 102.255C64.7418 102.255 54.547 92.0577 54.547 79.5263C54.547 69.7911 60.7006 61.4619 69.3217 58.2312C68.9949 57.8062 68.8001 57.2665 68.8001 56.689C68.8001 55.2982 69.9274 54.1558 71.3182 54.1558H83.2287C84.6196 54.1558 85.7468 55.2982 85.7468 56.689C85.7468 57.2665 85.5524 57.8137 85.2253 58.2387C87.3195 59.0235 89.2685 60.1088 91.0188 61.4423L92.2625 60.1986C93.2459 59.2152 94.8405 59.2157 95.8236 60.1986C96.8071 61.1821 96.8068 62.7763 95.8236 63.7598L94.6664 64.9167C97.9937 68.8706 100 73.9692 100 79.5291ZM94.9638 79.53C94.9638 69.7755 87.028 61.8393 77.2735 61.8393C67.519 61.8393 59.5831 69.7752 59.5831 79.53C59.5831 89.2844 67.519 97.2203 77.2735 97.2203C87.028 97.22 94.9638 89.2844 94.9638 79.53ZM80.6807 73.3089L79.7392 74.2243V70.3294C79.7392 68.9386 78.612 67.8114 77.2212 67.8114C75.8303 67.8114 74.7031 68.9386 74.7031 70.3294V80.3038C74.7031 80.6466 74.7976 80.9731 74.9216 81.2708C75.0444 81.5668 75.2391 81.8438 75.4798 82.0844C75.7263 82.3309 76.0178 82.5158 76.3219 82.6384C76.3225 82.6387 76.3261 82.6387 76.3267 82.6389C76.3278 82.6395 76.3306 82.5768 76.332 82.5774C76.5975 82.6843 76.8871 82.6941 77.1884 82.6941C77.1901 82.6941 77.1915 82.6941 77.1937 82.6941C77.2203 82.6941 77.2469 82.6952 77.2738 82.6952C77.3006 82.6952 77.3269 82.6941 77.3535 82.6941C77.3552 82.6941 77.3571 82.6941 77.3588 82.6941C77.6655 82.6941 77.9581 82.682 78.2273 82.5718C78.5283 82.449 78.8103 82.2968 79.0546 82.0525L84.2687 76.8541C85.2522 75.8706 85.2387 74.2842 84.2556 73.3008C83.2715 72.3173 81.6642 72.3254 80.6807 73.3089ZM53.8604 64.7877C53.8604 66.1785 52.7331 67.3058 51.3423 67.3058H49.2425V85.8103C49.2425 87.2011 48.1398 88.3189 46.749 88.3189C46.6642 88.3189 46.6052 88.3049 46.5227 88.2971C46.4401 88.3052 46.3562 88.2901 46.2717 88.2901H2.54186C1.15104 88.2901 0 87.2011 0 85.8106V22.4862V22.4856C0 21.0948 1.15104 20.0218 2.54186 20.0218H91.0063C92.3971 20.0218 93.4488 21.0948 93.4488 22.4856V49.7895C93.4488 51.1803 92.3215 52.3075 90.9307 52.3075C89.5399 52.3075 88.4126 51.1803 88.4126 49.7895V46.042H71.3456V46.2571C71.3456 47.648 70.2184 48.7752 68.8276 48.7752C67.4367 48.7752 66.3095 47.648 66.3095 46.2571V46.042H49.2425V62.2696H51.3423C52.7331 62.2696 53.8604 63.3969 53.8604 64.7877ZM22.1032 67.3058H5.03616V83.2536H22.1032V67.3058ZM22.1032 46.042H5.03616V62.2696H22.1032V46.042ZM44.2063 67.3058H27.1393V83.2536H44.2063V67.3058ZM44.2063 46.042H27.1393V62.2696H44.2063V46.042ZM49.2425 30.5605V41.0058H66.3095V30.5605C66.3095 29.1697 67.4367 28.0425 68.8276 28.0425C70.2184 28.0425 71.3456 29.1697 71.3456 30.5605V41.0058H88.4126V25.058H5.03616V41.0058H22.1032V30.5605C22.1032 29.1697 23.2304 28.0425 24.6212 28.0425C26.0121 28.0425 27.1393 29.1697 27.1393 30.5605V41.0058H44.2063V30.5605C44.2063 29.1697 45.3336 28.0425 46.7244 28.0425C48.1152 28.0425 49.2425 29.1697 49.2425 30.5605Z" fill="#36A3F1"/>
</svg>
