<svg width="150" height="122" viewBox="0 0 150 122" fill="none" xmlns="http://www.w3.org/2000/svg">
<g style="mix-blend-mode:multiply">
<path d="M150 116.492C150 119.494 129.496 121.925 104.166 121.925C78.8362 121.925 58.3285 119.494 58.3285 116.492C58.3285 113.49 78.8321 111.059 104.166 111.059C129.501 111.059 150 113.49 150 116.492Z" fill="#9D9D9C"/>
</g>
<g style="mix-blend-mode:multiply">
<path d="M121.398 111.059C121.398 114.06 100.894 116.492 75.5638 116.492C50.2337 116.492 29.7261 114.06 29.7261 111.059C29.7261 108.057 50.2296 105.625 75.5638 105.625C100.898 105.625 121.398 108.057 121.398 111.059Z" fill="#9D9D9C"/>
</g>
<g style="mix-blend-mode:multiply">
<path d="M51.669 118.423C51.669 120.359 40.105 121.925 25.8345 121.925C11.564 121.925 0 120.359 0 118.423C0 116.488 11.564 114.921 25.8345 114.921C40.105 114.921 51.669 116.488 51.669 118.423Z" fill="#9D9D9C"/>
</g>
<path d="M115.993 111.058V13.7198C115.993 10.6123 114.759 7.63189 112.562 5.43411C110.365 3.23633 107.385 2.00109 104.277 2H28.094C24.9857 2 22.0047 3.23476 19.8068 5.43266C17.6089 7.63056 16.3741 10.6115 16.3741 13.7198V111.058H115.993Z" fill="#F0F0F0" stroke="#411051" stroke-width="2.5" stroke-linecap="round" stroke-linejoin="round"/>
<path d="M93.1846 67.2793C93.1846 72.6202 91.6008 77.8412 88.6335 82.2819C85.6662 86.7227 81.4486 90.1837 76.5142 92.2274C71.5797 94.2711 66.1501 94.8056 60.9119 93.7634C55.6736 92.7211 50.8621 90.1489 47.0858 86.372C43.3095 82.5951 40.7381 77.7832 39.6966 72.5449C38.6551 67.3065 39.1905 61.8769 41.2349 56.9428C43.2793 52.0087 46.7411 47.7916 51.1822 44.825C55.6234 41.8583 60.8446 40.2753 66.1855 40.2761C69.7314 40.2761 73.2426 40.9746 76.5186 42.3317C79.7945 43.6888 82.7711 45.6779 85.2782 48.1854C87.7854 50.693 89.774 53.6698 91.1306 56.946C92.4872 60.2221 93.1852 63.7334 93.1846 67.2793Z" fill="#F3A1C6" stroke="#411051" stroke-width="2.5" stroke-linecap="round" stroke-linejoin="round"/>
<path d="M84.2738 67.2794C84.2754 70.8572 83.2159 74.3552 81.2293 77.3309C79.2428 80.3066 76.4183 82.6263 73.1133 83.9966C69.8082 85.3669 66.171 85.7263 62.6617 85.0293C59.1524 84.3323 55.9286 82.6102 53.3981 80.0808C50.8676 77.5514 49.144 74.3284 48.4454 70.8194C47.7468 67.3104 48.1046 63.6731 49.4734 60.3674C50.8422 57.0617 53.1606 54.2363 56.1354 52.2483C59.1101 50.2604 62.6076 49.1993 66.1855 49.1993C70.9814 49.1993 75.581 51.1039 78.9729 54.4944C82.3649 57.8848 84.2716 62.4835 84.2738 67.2794Z" fill="#86D1F5" stroke="#411051" stroke-width="2.5" stroke-linecap="round" stroke-linejoin="round"/>
<path d="M62.8845 67.8288L71.1433 60.3573" stroke="#411051" stroke-width="2.5" stroke-linecap="round" stroke-linejoin="round"/>
<path d="M61.2236 75.5627L69.4825 68.0912" stroke="#411051" stroke-width="2.5" stroke-linecap="round" stroke-linejoin="round"/>
<g style="mix-blend-mode:multiply">
<path d="M104.802 2H98.9789C107.184 13.9032 111.243 28.1757 110.53 42.6151C109.817 57.0544 104.372 70.8579 95.0354 81.8952C85.6984 92.9326 72.9884 100.59 58.8669 103.686C44.7455 106.783 29.9975 105.145 16.899 99.027V111.058H116.518V13.7198C116.518 10.6123 115.283 7.63189 113.086 5.43411C110.889 3.23633 107.909 2.00109 104.802 2Z" fill="#DADADA"/>
</g>
<path d="M115.993 28.22V13.7198C115.993 10.6123 114.759 7.63189 112.562 5.43411C110.365 3.23633 107.385 2.00109 104.277 2H28.094C24.9857 2 22.0047 3.23477 19.8068 5.43266C17.6089 7.63056 16.3741 10.6115 16.3741 13.7198V28.22H115.993Z" fill="#F0F0F0" stroke="#411051" stroke-width="2.5" stroke-linecap="round" stroke-linejoin="round"/>
<path d="M100.324 20.4696C99.5202 21.6785 98.376 22.6218 97.0362 23.1805C95.6963 23.7391 94.2209 23.8879 92.7964 23.6081C91.372 23.3282 90.0625 22.6323 89.0336 21.6083C88.0046 20.5842 87.3024 19.2781 87.0157 17.855C86.7291 16.432 86.8708 14.9558 87.423 13.6133C87.9752 12.2708 88.9131 11.1221 90.118 10.3126C91.323 9.50301 92.741 9.06893 94.1926 9.06521C95.6443 9.06149 97.0645 9.48829 98.2736 10.2916C99.0766 10.8252 99.7667 11.5117 100.304 12.312C100.842 13.1123 101.217 14.0107 101.407 14.9559C101.598 15.901 101.6 16.8744 101.414 17.8205C101.228 18.7666 100.858 19.6667 100.324 20.4696Z" fill="#F3A1C6" stroke="#411051" stroke-width="2.5" stroke-linecap="round" stroke-linejoin="round"/>
<path d="M93.0575 22.4667C92.8831 22.728 92.6589 22.9524 92.3978 23.127C92.1366 23.3016 91.8437 23.423 91.5356 23.4843C91.2275 23.5456 90.9103 23.5456 90.6022 23.4843C90.2941 23.423 90.0011 23.3015 89.74 23.1269C89.2134 22.7748 88.8482 22.2281 88.7244 21.6068C88.6006 20.9856 88.7284 20.3406 89.0798 19.8135L95.4031 10.3286C95.7546 9.80138 96.301 9.43526 96.9223 9.3107C97.5436 9.18613 98.1889 9.31331 98.7164 9.66428C99.2437 10.0158 99.6098 10.5622 99.7344 11.1835C99.8589 11.8048 99.7317 12.4501 99.3808 12.9777L93.0575 22.4667Z" fill="#F3A1C6" stroke="#411051" stroke-width="2.5" stroke-linecap="round" stroke-linejoin="round"/>
<path d="M35.8976 12.4856C35.8976 12.9722 35.7533 13.4479 35.483 13.8525C35.2126 14.2571 34.8284 14.5725 34.3788 14.7587C33.9292 14.9449 33.4345 14.9937 32.9572 14.8987C32.4799 14.8038 32.0415 14.5695 31.6974 14.2254C31.3533 13.8813 31.119 13.4429 31.0241 12.9656C30.9291 12.4883 30.9778 11.9936 31.1641 11.544C31.3503 11.0944 31.6656 10.7102 32.0703 10.4398C32.4749 10.1694 32.9506 10.0251 33.4372 10.0251C34.0898 10.0251 34.7156 10.2844 35.177 10.7458C35.6384 11.2072 35.8976 11.833 35.8976 12.4856Z" fill="#86D1F5" stroke="#411051" stroke-width="2.5" stroke-linecap="round" stroke-linejoin="round"/>
<path d="M49.5694 12.4856C49.5694 12.9722 49.4251 13.4479 49.1548 13.8525C48.8844 14.2571 48.5002 14.5725 48.0506 14.7587C47.601 14.9449 47.1063 14.9937 46.629 14.8987C46.1517 14.8038 45.7133 14.5695 45.3692 14.2254C45.0251 13.8813 44.7908 13.4429 44.6959 12.9656C44.6009 12.4883 44.6497 11.9936 44.8359 11.544C45.0221 11.0944 45.3375 10.7102 45.7421 10.4398C46.1467 10.1694 46.6224 10.0251 47.109 10.0251C47.7616 10.0251 48.3874 10.2844 48.8488 10.7458C49.3102 11.2072 49.5694 11.833 49.5694 12.4856Z" fill="#86D1F5" stroke="#411051" stroke-width="2.5" stroke-linecap="round" stroke-linejoin="round"/>
<path d="M63.2453 12.4856C63.2453 12.9722 63.101 13.4479 62.8307 13.8525C62.5603 14.2571 62.176 14.5725 61.7265 14.7587C61.2769 14.9449 60.7822 14.9937 60.3049 14.8987C59.8276 14.8038 59.3892 14.5695 59.0451 14.2254C58.701 13.8813 58.4667 13.4429 58.3717 12.9656C58.2768 12.4883 58.3255 11.9936 58.5118 11.544C58.698 11.0944 59.0133 10.7102 59.418 10.4398C59.8226 10.1694 60.2983 10.0251 60.7849 10.0251C61.4374 10.0251 62.0633 10.2844 62.5247 10.7458C62.9861 11.2072 63.2453 11.833 63.2453 12.4856Z" fill="#86D1F5" stroke="#411051" stroke-width="2.5" stroke-linecap="round" stroke-linejoin="round"/>
<path d="M76.9171 12.4856C76.9171 12.9722 76.7728 13.4479 76.5024 13.8525C76.2321 14.2571 75.8478 14.5725 75.3982 14.7587C74.9486 14.9449 74.4539 14.9937 73.9766 14.8987C73.4994 14.8038 73.061 14.5695 72.7169 14.2254C72.3728 13.8813 72.1384 13.4429 72.0435 12.9656C71.9486 12.4883 71.9973 11.9936 72.1835 11.544C72.3697 11.0944 72.6851 10.7102 73.0897 10.4398C73.4943 10.1694 73.97 10.0251 74.4567 10.0251C75.1092 10.0251 75.735 10.2844 76.1964 10.7458C76.6579 11.2072 76.9171 11.833 76.9171 12.4856Z" fill="#86D1F5" stroke="#411051" stroke-width="2.5" stroke-linecap="round" stroke-linejoin="round"/>
<path d="M44.5543 21.2897C44.5543 21.6806 44.3993 22.0554 44.1233 22.3322C43.8474 22.6089 43.4729 22.7649 43.0821 22.766H33.8104C33.4196 22.7649 33.0451 22.6089 32.7692 22.3322C32.4932 22.0554 32.3382 21.6806 32.3382 21.2897C32.3382 20.8989 32.4932 20.524 32.7692 20.2473C33.0451 19.9706 33.4196 19.8146 33.8104 19.8135H43.0698C43.4606 19.8146 43.8351 19.9706 44.111 20.2473C44.387 20.524 44.542 20.8989 44.542 21.2897H44.5543Z" fill="#90CAA2" stroke="#411051" stroke-width="2.5" stroke-linecap="round" stroke-linejoin="round"/>
<path d="M60.0508 21.2897C60.0508 21.6806 59.8959 22.0554 59.6199 22.3322C59.3439 22.6089 58.9695 22.7649 58.5787 22.766H49.3193C48.9284 22.7649 48.554 22.6089 48.278 22.3322C48.0021 22.0554 47.8471 21.6806 47.8471 21.2897C47.8471 20.8989 48.0021 20.524 48.278 20.2473C48.554 19.9706 48.9284 19.8146 49.3193 19.8135H58.5787C58.9695 19.8146 59.3439 19.9706 59.6199 20.2473C59.8959 20.524 60.0508 20.8989 60.0508 21.2897Z" fill="#90CAA2" stroke="#411051" stroke-width="2.5" stroke-linecap="round" stroke-linejoin="round"/>
<path d="M75.5638 21.2897C75.5638 21.6813 75.4083 22.0568 75.1315 22.3336C74.8546 22.6105 74.4791 22.766 74.0876 22.766H64.8282C64.4374 22.7649 64.0629 22.6089 63.787 22.3322C63.511 22.0554 63.356 21.6806 63.356 21.2897C63.356 20.8989 63.511 20.524 63.787 20.2473C64.0629 19.9706 64.4374 19.8146 64.8282 19.8135H74.0794C74.4709 19.8135 74.8464 19.969 75.1233 20.2459C75.4001 20.5227 75.5556 20.8982 75.5556 21.2897H75.5638Z" fill="#90CAA2" stroke="#411051" stroke-width="2.5" stroke-linecap="round" stroke-linejoin="round"/>
<g style="mix-blend-mode:multiply">
<path d="M109.985 3.48865C101.575 19.8136 80.1484 28.2201 16.3741 17.5951V28.2201H115.993V13.7199C115.994 11.634 115.437 9.58569 114.381 7.78692C113.325 5.98814 111.807 4.50422 109.985 3.48865Z" fill="#DADADA"/>
</g>
<path d="M100.834 42.6168L79.9269 89.0498L119.319 106.786L140.226 60.3534L100.834 42.6168Z" fill="#F7C1DA" stroke="#411051" stroke-width="2.5" stroke-linecap="round" stroke-linejoin="round"/>
<path d="M109.073 46.3284L103.493 58.72L126.407 69.037L131.986 56.6454L109.073 46.3284Z" fill="#EF83B3" stroke="#411051" stroke-width="2.5" stroke-linecap="round" stroke-linejoin="round"/>
<path d="M114.726 63.7199C114.726 63.7199 128.065 65.3356 131.981 56.6379L124.776 72.6307L114.726 63.7199Z" fill="#FAD8E9" stroke="#411051" stroke-width="2.5" stroke-linecap="round" stroke-linejoin="round"/>
<path d="M115.205 63.9373C115.205 63.9373 105.155 55.0182 109.054 46.3247L101.854 62.3175L115.205 63.9373Z" fill="#FAD8E9" stroke="#411051" stroke-width="2.5" stroke-linecap="round" stroke-linejoin="round"/>
<path d="M131.334 58.0733L133.273 53.7717C133.445 53.3888 133.457 52.9535 133.308 52.5613C133.159 52.1692 132.86 51.8523 132.478 51.6803L112.454 42.6587C112.264 42.5731 112.059 42.5258 111.851 42.5194C111.643 42.5131 111.436 42.5478 111.241 42.6217C111.046 42.6956 110.868 42.8072 110.717 42.9501C110.565 43.0929 110.444 43.2643 110.358 43.4543L108.423 47.7559C108.998 47.4822 109.625 47.335 110.261 47.3244C110.898 47.3138 111.53 47.44 112.113 47.6944L129.029 55.3053C131.362 56.3592 131.334 58.0733 131.334 58.0733Z" fill="#FAD8E9" stroke="#411051" stroke-width="2.5" stroke-linecap="round" stroke-linejoin="round"/>
<path d="M114.726 63.724L99.3808 97.8091" stroke="#411051" stroke-width="2.5" stroke-linecap="round" stroke-linejoin="round"/>
<path d="M110.084 68.571C109.986 68.7879 109.827 68.9711 109.626 69.0974C109.424 69.2237 109.19 69.2874 108.952 69.2804C108.715 69.2735 108.484 69.1962 108.291 69.0584C108.097 68.9205 107.948 68.7283 107.864 68.5061C107.78 68.2838 107.763 68.0416 107.816 67.8099C107.87 67.5782 107.991 67.3676 108.164 67.2046C108.337 67.0417 108.554 66.9337 108.789 66.8944C109.023 66.8552 109.264 66.8863 109.481 66.984C109.771 67.1147 109.997 67.3553 110.11 67.6528C110.223 67.9503 110.214 68.2805 110.084 68.571Z" fill="#411051"/>
<path d="M106.524 76.469C106.427 76.686 106.268 76.8692 106.066 76.9955C105.865 77.1217 105.63 77.1855 105.393 77.1785C105.155 77.1716 104.925 77.0943 104.731 76.9564C104.538 76.8186 104.389 76.6264 104.305 76.4042C104.22 76.1819 104.204 75.9396 104.257 75.708C104.31 75.4763 104.431 75.2656 104.604 75.1027C104.777 74.9397 104.995 74.8318 105.229 74.7925C105.464 74.7532 105.705 74.7844 105.921 74.8821C106.065 74.9464 106.195 75.0385 106.304 75.1532C106.412 75.2678 106.497 75.4028 106.553 75.5503C106.609 75.6977 106.635 75.8548 106.63 76.0125C106.625 76.1702 106.589 76.3253 106.524 76.469Z" fill="#411051"/>
<path d="M102.969 84.371C102.871 84.5874 102.711 84.77 102.51 84.8956C102.308 85.0213 102.074 85.0844 101.837 85.077C101.599 85.0696 101.369 84.992 101.176 84.854C100.983 84.716 100.835 84.5239 100.75 84.3018C100.666 84.0797 100.65 83.8376 100.703 83.6062C100.757 83.3748 100.877 83.1643 101.05 83.0015C101.223 82.8386 101.44 82.7307 101.675 82.6912C101.909 82.6518 102.149 82.6827 102.366 82.7799C102.657 82.9115 102.883 83.1528 102.996 83.451C103.109 83.7492 103.099 84.08 102.969 84.371Z" fill="#411051"/>
<path d="M99.4136 92.2567C99.3158 92.4732 99.156 92.6557 98.9545 92.7814C98.7529 92.907 98.5187 92.9701 98.2813 92.9627C98.0439 92.9553 97.814 92.8777 97.6207 92.7398C97.4274 92.6018 97.2793 92.4096 97.1952 92.1875C97.111 91.9654 97.0946 91.7233 97.148 91.4919C97.2013 91.2605 97.322 91.0501 97.4949 90.8872C97.6678 90.7244 97.8851 90.6164 98.1193 90.577C98.3535 90.5375 98.5941 90.5684 98.8108 90.6657C98.955 90.7304 99.085 90.8229 99.1934 90.938C99.3017 91.053 99.3863 91.1883 99.4423 91.3361C99.4983 91.4839 99.5246 91.6413 99.5197 91.7993C99.5147 91.9573 99.4787 92.1127 99.4136 92.2567Z" fill="#411051"/>
<path d="M114.779 76.1573L111.736 82.9235C111.611 83.2 111.542 83.4984 111.533 83.8016C111.523 84.1049 111.574 84.407 111.681 84.6907C111.789 84.9744 111.951 85.2342 112.159 85.4552C112.367 85.6762 112.616 85.854 112.893 85.9786L120.208 89.2591C120.767 89.5097 121.402 89.5281 121.974 89.3105C122.546 89.0929 123.008 88.657 123.259 88.0986L126.306 81.3365L114.779 76.1573Z" fill="#F7C1DA" stroke="#411051" stroke-width="2.5" stroke-linecap="round" stroke-linejoin="round"/>
<path d="M115.02 73.6991L113.596 76.8624L126.578 82.7078L128.003 79.5445L115.02 73.6991Z" fill="#F7C1DA" stroke="#411051" stroke-width="2.5" stroke-linecap="round" stroke-linejoin="round"/>
<path d="M105.464 69.0697L72.0034 73.8915L77.6879 113.339L111.149 108.517L105.464 69.0697Z" fill="#47C1F1" stroke="#411051" stroke-width="2.5" stroke-linecap="round" stroke-linejoin="round"/>
<path d="M98.4646 70.0788L79.0027 72.8833L80.5199 83.4118L99.9818 80.6073L98.4646 70.0788Z" fill="#00AEEA" stroke="#411051" stroke-width="2.5" stroke-linecap="round" stroke-linejoin="round"/>
<path d="M90.0475 82.005C90.0475 82.005 99.5366 77.4737 98.4704 70.0842L100.431 83.6781L90.0475 82.005Z" fill="#A4DBF8" stroke="#411051" stroke-width="2.5" stroke-linecap="round" stroke-linejoin="round"/>
<path d="M90.4576 81.9352C90.4576 81.9352 80.0746 80.2662 79.0085 72.8767L80.9686 86.4706L90.4576 81.9352Z" fill="#A4DBF8" stroke="#411051" stroke-width="2.5" stroke-linecap="round" stroke-linejoin="round"/>
<path d="M98.6468 71.2898L98.1219 67.6402C98.0998 67.4787 98.0458 67.3232 97.9631 67.1828C97.8805 67.0423 97.7707 66.9197 97.6402 66.822C97.5097 66.7243 97.3611 66.6536 97.203 66.6138C97.045 66.5741 96.8806 66.5661 96.7194 66.5904L79.7097 69.0509C79.5478 69.0729 79.3919 69.127 79.2511 69.2099C79.1104 69.2929 78.9875 69.4031 78.8898 69.534C78.7921 69.6649 78.7214 69.814 78.6819 69.9726C78.6425 70.1311 78.635 70.2959 78.6599 70.4574L79.1848 74.107C79.45 73.6836 79.8035 73.3223 80.221 73.0477C80.6385 72.7731 81.1103 72.5918 81.6042 72.516L95.9567 70.4656C97.9455 70.1499 98.6468 71.2898 98.6468 71.2898Z" fill="#A4DBF8" stroke="#411051" stroke-width="2.5" stroke-linecap="round" stroke-linejoin="round"/>
<path d="M90.0475 81.9968L94.2221 110.952" stroke="#411051" stroke-width="2.5" stroke-linecap="round" stroke-linejoin="round"/>
<path d="M89.0183 87.1472C89.0407 87.3317 89.0082 87.5187 88.9247 87.6848C88.8413 87.8508 88.7106 87.9885 88.5492 88.0806C88.3877 88.1726 88.2026 88.2149 88.0172 88.2021C87.8318 88.1894 87.6543 88.1221 87.507 88.0088C87.3597 87.8955 87.2491 87.7412 87.1892 87.5652C87.1293 87.3893 87.1227 87.1996 87.1703 87.0199C87.2178 86.8402 87.3174 86.6786 87.4565 86.5553C87.5956 86.4321 87.768 86.3527 87.9521 86.327C88.0762 86.3092 88.2026 86.3164 88.3239 86.3482C88.4451 86.38 88.5588 86.4358 88.6582 86.5122C88.7575 86.5887 88.8406 86.6842 88.9024 86.7933C88.9643 86.9023 89.0037 87.0227 89.0183 87.1472Z" fill="#411051"/>
<path d="M89.986 93.856C90.0134 94.0408 89.9853 94.2295 89.9053 94.3982C89.8253 94.567 89.697 94.7082 89.5367 94.8039C89.3763 94.8997 89.1912 94.9457 89.0047 94.9361C88.8182 94.9265 88.6387 94.8618 88.489 94.7501C88.3393 94.6384 88.2262 94.4848 88.1639 94.3088C88.1016 94.1327 88.093 93.9421 88.1391 93.7612C88.1853 93.5802 88.2841 93.417 88.4231 93.2923C88.5621 93.1675 88.735 93.0869 88.9199 93.0605C89.1666 93.0253 89.4173 93.0892 89.6171 93.2383C89.8169 93.3873 89.9495 93.6094 89.986 93.856Z" fill="#411051"/>
<path d="M90.9538 100.565C90.9812 100.75 90.9531 100.938 90.8731 101.107C90.7931 101.276 90.6648 101.417 90.5044 101.513C90.3441 101.608 90.159 101.654 89.9725 101.645C89.7859 101.635 89.6065 101.571 89.4568 101.459C89.3071 101.347 89.194 101.194 89.1317 101.018C89.0694 100.841 89.0608 100.651 89.1069 100.47C89.1531 100.289 89.2519 100.126 89.3909 100.001C89.5299 99.8763 89.7028 99.7956 89.8876 99.7692C90.1344 99.734 90.3851 99.7979 90.5849 99.947C90.7847 100.096 90.9173 100.318 90.9538 100.565Z" fill="#411051"/>
<path d="M91.9175 107.278C91.944 107.461 91.9154 107.649 91.8353 107.817C91.7551 107.984 91.6271 108.124 91.4673 108.219C91.3075 108.314 91.1232 108.359 90.9377 108.349C90.7522 108.339 90.5738 108.275 90.4251 108.163C90.2764 108.052 90.164 107.899 90.1023 107.724C90.0406 107.548 90.0322 107.359 90.0783 107.179C90.1244 106.999 90.2228 106.837 90.3611 106.713C90.4995 106.588 90.6715 106.508 90.8554 106.482C91.1015 106.448 91.3511 106.512 91.55 106.661C91.7489 106.81 91.8809 107.032 91.9175 107.278Z" fill="#411051"/>
<path d="M95.3047 90.2064L96.1248 95.9474C96.159 96.1825 96.2391 96.4085 96.3606 96.6126C96.4822 96.8167 96.6427 96.9949 96.8331 97.1369C97.0235 97.279 97.2401 97.3821 97.4703 97.4405C97.7006 97.4988 97.9401 97.5112 98.1752 97.4769L104.392 96.583C104.627 96.5488 104.853 96.4687 105.057 96.3472C105.261 96.2256 105.439 96.0651 105.581 95.8747C105.723 95.6843 105.827 95.4678 105.885 95.2375C105.943 95.0072 105.956 94.7677 105.921 94.5326L105.101 88.7916L95.3047 90.2064Z" fill="#A4DBF8" stroke="#411051" stroke-width="2.5" stroke-linecap="round" stroke-linejoin="round"/>
<path d="M105.454 86.8738L94.4223 88.4635L94.8101 91.1545L105.842 89.5648L105.454 86.8738Z" fill="#A4DBF8" stroke="#411051" stroke-width="2.5" stroke-linecap="round" stroke-linejoin="round"/>
<path d="M71.9265 85.2363L76.6505 113.863C76.6505 115.264 77.207 116.608 78.1975 117.598C79.188 118.589 80.5315 119.145 81.9323 119.145H119.347C120.747 119.144 122.09 118.587 123.079 117.597C124.069 116.606 124.625 115.263 124.625 113.863L129.353 85.2363H71.9265ZM83.9908 115.172C83.7232 115.22 83.4486 115.215 83.1829 115.157C82.9172 115.099 82.6658 114.988 82.4433 114.832C82.2208 114.675 82.0317 114.476 81.8869 114.246C81.7421 114.015 81.6446 113.759 81.6001 113.49L78.2703 94.4014C78.1762 93.8614 78.3005 93.3062 78.6158 92.8579C78.9311 92.4095 79.4116 92.1048 79.9516 92.0107C80.4916 91.9166 81.0468 92.0409 81.4952 92.3562C81.9435 92.6715 82.2482 93.152 82.3423 93.692L85.6762 112.781C85.7274 113.05 85.7242 113.327 85.6667 113.594C85.6092 113.862 85.4987 114.116 85.3416 114.34C85.1845 114.564 84.984 114.755 84.752 114.901C84.52 115.046 84.2612 115.144 83.9908 115.188V115.172ZM92.3153 115.278C92.0451 115.309 91.7714 115.287 91.5102 115.211C91.2489 115.136 91.0053 115.009 90.7935 114.838C90.5817 114.668 90.4059 114.457 90.2765 114.217C90.147 113.978 90.0664 113.716 90.0394 113.445L87.989 94.1718C87.9303 93.628 88.09 93.0832 88.433 92.6571C88.776 92.2311 89.2741 91.9587 89.8179 91.9C90.3617 91.8413 90.9066 92.0009 91.3326 92.3439C91.7587 92.6869 92.031 93.1851 92.0897 93.7289L94.1606 113.002C94.1941 113.275 94.1727 113.551 94.0975 113.815C94.0223 114.079 93.8949 114.325 93.7228 114.539C93.5507 114.752 93.3374 114.93 93.0957 115.059C92.8539 115.189 92.5885 115.269 92.3153 115.295V115.278ZM102.932 112.908C102.932 113.516 102.69 114.099 102.261 114.529C101.831 114.959 101.248 115.2 100.64 115.2C100.032 115.2 99.4487 114.959 99.0188 114.529C98.5889 114.099 98.3474 113.516 98.3474 112.908V93.8273C98.3474 93.2194 98.5889 92.6363 99.0188 92.2064C99.4487 91.7765 100.032 91.535 100.64 91.535C101.248 91.535 101.831 91.7765 102.261 92.2064C102.69 92.6363 102.932 93.2194 102.932 93.8273V112.908ZM113.003 94.18L110.932 113.453C110.903 113.723 110.822 113.983 110.692 114.221C110.562 114.459 110.386 114.668 110.175 114.838C109.964 115.008 109.722 115.135 109.462 115.211C109.202 115.287 108.93 115.311 108.661 115.282C108.391 115.253 108.131 115.171 107.893 115.041C107.655 114.912 107.446 114.736 107.276 114.525C107.106 114.314 106.979 114.072 106.903 113.812C106.827 113.552 106.803 113.28 106.832 113.01L108.882 93.7371C108.941 93.1933 109.213 92.6951 109.639 92.3521C110.065 92.0092 110.61 91.8495 111.154 91.9082C111.698 91.9669 112.196 92.2393 112.539 92.6653C112.882 93.0913 113.042 93.6362 112.983 94.18H113.003ZM123.009 94.4014L119.675 113.49C119.581 114.03 119.276 114.511 118.828 114.826C118.38 115.141 117.824 115.266 117.285 115.172C116.745 115.077 116.264 114.773 115.949 114.324C115.633 113.876 115.509 113.321 115.603 112.781L118.933 93.692C119.027 93.1515 119.332 92.6705 119.781 92.3548C120.229 92.0391 120.785 91.9146 121.326 92.0086C121.866 92.1027 122.347 92.4077 122.663 92.8564C122.979 93.3051 123.103 93.8609 123.009 94.4014Z" fill="#F3A1C6" stroke="#411051" stroke-width="2.5" stroke-linecap="round" stroke-linejoin="round"/>
<g style="mix-blend-mode:multiply">
<path d="M122.127 85.2363C122.061 87.5294 121.709 89.8052 121.078 92.0107C121.16 92.0046 121.242 92.0046 121.324 92.0107C121.592 92.0548 121.85 92.1519 122.08 92.2965C122.311 92.441 122.511 92.6301 122.668 92.8527C122.825 93.0752 122.936 93.3268 122.994 93.5927C123.053 93.8586 123.058 94.1336 123.009 94.4014L119.675 113.49C119.581 114.03 119.276 114.511 118.828 114.826C118.38 115.141 117.824 115.266 117.284 115.172C116.745 115.077 116.264 114.773 115.949 114.324C115.633 113.876 115.509 113.321 115.603 112.781L118.01 98.9655C116.329 101.712 114.2 104.159 111.712 106.203L110.932 113.445C110.903 113.714 110.822 113.975 110.692 114.213C110.562 114.451 110.386 114.66 110.175 114.83C109.964 115 109.722 115.127 109.462 115.203C109.202 115.279 108.93 115.303 108.661 115.274C108.391 115.245 108.131 115.163 107.893 115.033C107.655 114.903 107.446 114.728 107.276 114.517C107.106 114.306 106.979 114.064 106.903 113.804C106.827 113.544 106.803 113.272 106.832 113.002L107.242 109.234C105.867 109.986 104.43 110.621 102.948 111.132V112.908C102.948 113.516 102.707 114.099 102.277 114.529C101.847 114.959 101.264 115.2 100.656 115.2C100.048 115.2 99.4651 114.959 99.0352 114.529C98.6053 114.099 98.3638 113.516 98.3638 112.908V112.297C96.9644 112.525 95.5497 112.646 94.1319 112.658L94.1688 113.002C94.2275 113.546 94.0678 114.091 93.7248 114.517C93.3818 114.943 92.8836 115.215 92.3399 115.274C91.7961 115.333 91.2512 115.173 90.8252 114.83C90.3991 114.487 90.1268 113.989 90.0681 113.445L89.9532 112.371C88.4233 112.148 86.9146 111.798 85.4425 111.325L85.6967 112.781C85.7908 113.321 85.6663 113.877 85.3506 114.326C85.0349 114.775 84.5539 115.08 84.0134 115.174C83.4728 115.268 82.9171 115.143 82.4683 114.827C82.0196 114.512 81.7147 114.031 81.6206 113.49L80.9071 109.39C78.8878 108.32 77.0032 107.014 75.2932 105.498L76.671 113.835C76.671 115.236 77.2275 116.579 78.218 117.569C79.2085 118.56 80.552 119.116 81.9528 119.116H119.368C120.768 119.115 122.11 118.558 123.1 117.568C124.089 116.578 124.645 115.235 124.645 113.835L129.373 85.2076L122.127 85.2363Z" fill="#C6C6C6"/>
</g>
<path d="M131.178 87.2826C131.178 87.4806 131.14 87.6767 131.064 87.8598C130.989 88.0429 130.878 88.2093 130.738 88.3495C130.599 88.4896 130.432 88.6009 130.25 88.6767C130.067 88.7526 129.871 88.7917 129.673 88.7917H71.619C71.2187 88.7917 70.8349 88.6327 70.5519 88.3497C70.2689 88.0667 70.1099 87.6829 70.1099 87.2826V83.1819C70.1099 82.7817 70.2689 82.3979 70.5519 82.1148C70.8349 81.8318 71.2187 81.6729 71.619 81.6729H129.685C129.883 81.6729 130.079 81.7119 130.262 81.7878C130.445 81.8637 130.611 81.9749 130.751 82.1151C130.89 82.2553 131.001 82.4217 131.077 82.6047C131.152 82.7878 131.191 82.9839 131.19 83.1819L131.178 87.2826Z" fill="#A4D7E2" stroke="#411051" stroke-width="2.5" stroke-linecap="round" stroke-linejoin="round"/>
<g style="mix-blend-mode:multiply">
<path d="M129.673 81.681H122.107C111.855 86.3312 100.402 88.6851 89.1413 87.7214C82.722 87.2044 76.354 86.1773 70.0976 84.65V87.2826C70.0976 87.6828 70.2566 88.0667 70.5396 88.3497C70.8226 88.6327 71.2064 88.7917 71.6066 88.7917H129.673C129.871 88.7917 130.067 88.7526 130.25 88.6767C130.432 88.6008 130.599 88.4896 130.738 88.3494C130.878 88.2092 130.989 88.0429 131.064 87.8598C131.14 87.6767 131.178 87.4806 131.178 87.2826V83.1819C131.177 82.7835 131.018 82.4017 130.735 82.1204C130.453 81.839 130.071 81.681 129.673 81.681Z" fill="#C6C6C6"/>
</g>
<path d="M34.8069 59.4919H22.9476V64.0027H34.8069V59.4919Z" fill="#F3A1C6" stroke="#411051" stroke-width="2.5" stroke-linecap="round" stroke-linejoin="round"/>
<path d="M23.8169 59.492V52.0123C23.8164 51.8104 23.8556 51.6103 23.9324 51.4235C24.0092 51.2368 24.122 51.0669 24.2644 50.9238C24.4068 50.7806 24.5761 50.6669 24.7624 50.5891C24.9488 50.5113 25.1487 50.471 25.3506 50.4705H32.3997C32.8079 50.4715 33.1991 50.6345 33.4873 50.9235C33.7756 51.2125 33.9375 51.6041 33.9375 52.0123V59.492H23.8169Z" fill="#C4E3E4" stroke="#411051" stroke-width="2.5" stroke-linecap="round" stroke-linejoin="round"/>
<path d="M31.9117 50.4746V56.5027" stroke="#411051" stroke-width="2.5" stroke-linecap="round" stroke-linejoin="round"/>
<path d="M29.886 50.4746V56.5027" stroke="#411051" stroke-width="2.5" stroke-linecap="round" stroke-linejoin="round"/>
<path d="M27.8643 50.4746V56.5027" stroke="#411051" stroke-width="2.5" stroke-linecap="round" stroke-linejoin="round"/>
<path d="M25.8386 50.4746V56.5027" stroke="#411051" stroke-width="2.5" stroke-linecap="round" stroke-linejoin="round"/>
<path d="M7.68063 81.7548V114.196C7.68063 115.592 8.23537 116.931 9.22281 117.919C10.2102 118.906 11.5495 119.461 12.9459 119.461H34.204C35.6005 119.461 36.9397 118.906 37.9272 117.919C38.9146 116.931 39.4694 115.592 39.4694 114.196V69.2681C39.4699 68.5765 39.3341 67.8916 39.0697 67.2525C38.8052 66.6135 38.4174 66.0328 37.9284 65.5438C37.4394 65.0547 36.8587 64.6669 36.2196 64.4025C35.5806 64.1381 34.8957 64.0023 34.204 64.0028H22.923C21.9864 64.0572 21.0698 64.2956 20.2255 64.7044C19.3811 65.1132 18.6256 65.6844 18.0021 66.3853C15.4392 69.2927 12.7163 72.9834 9.73099 76.2639C8.74272 77.3342 7.68063 78.9294 7.68063 81.7548ZM12.8967 77.9042L19.7982 69.2927C20.2227 68.7891 20.827 68.4712 21.4825 68.4067C22.1379 68.3422 22.7926 68.5362 23.3071 68.9475C23.8215 69.3587 24.155 69.9546 24.2365 70.6082C24.3179 71.2617 24.1409 71.9212 23.7431 72.4462L16.8375 81.0577C16.6305 81.3164 16.3745 81.5319 16.0842 81.6917C15.7938 81.8515 15.4749 81.9526 15.1455 81.9891C14.8161 82.0257 14.4828 81.997 14.1645 81.9047C13.8462 81.8125 13.5492 81.6584 13.2904 81.4513C13.0317 81.2443 12.8162 80.9883 12.6564 80.698C12.4966 80.4077 12.3955 80.0887 12.3589 79.7593C12.2851 79.0941 12.4786 78.4268 12.8967 77.9042Z" fill="#8DCCC1" stroke="#411051" stroke-width="2.5" stroke-linecap="round" stroke-linejoin="round"/>
<path d="M35.7172 88.6974H11.5722V110.595H35.7172V88.6974Z" fill="white" stroke="#411051" stroke-width="2.5" stroke-linecap="round" stroke-linejoin="round"/>
<g style="mix-blend-mode:multiply">
<path d="M11.5025 108.959C25.5679 108.959 37.3042 97.2227 37.3042 83.1572C37.2858 79.5347 36.5043 75.9567 35.0107 72.6563C33.517 69.356 31.3447 66.4075 28.6353 64.0028H34.204C34.8957 64.0023 35.5806 64.1381 36.2196 64.4025C36.8587 64.6669 37.4394 65.0547 37.9284 65.5438C38.4174 66.0328 38.8052 66.6135 39.0697 67.2525C39.3341 67.8916 39.4699 68.5765 39.4694 69.2681V114.196C39.4694 115.592 38.9146 116.931 37.9272 117.919C36.9397 118.906 35.6005 119.461 34.204 119.461H12.9459C11.5495 119.461 10.2102 118.906 9.22281 117.919C8.23537 116.931 7.68063 115.592 7.68063 114.196V108.66C8.94508 108.857 10.2228 108.957 11.5025 108.959Z" fill="#DADADA"/>
</g>
</svg>
